<?xml version="1.0" encoding="utf-8"?>
<!-- Generator: Adobe Illustrator 22.1.0, SVG Export Plug-In . SVG Version: 6.00 Build 0)  -->
<svg version="1.1" id="Card" xmlns="http://www.w3.org/2000/svg" xmlns:xlink="http://www.w3.org/1999/xlink" x="0px" y="0px"
	 viewBox="0 0 150.6 91.2" style="enable-background:new 0 0 150.6 91.2;" xml:space="preserve">
<style type="text/css">
	.st0{fill:#FFFFFF;}
	.st1{fill:#5E5E5E;}
	.st2{font-family:'Arial-ItalicMT';}
	.st3{font-size:4px;}
	.st4{font-family:'ArialMT';}
	.st5{font-size:6px;}
	.st6{font-family:'Arial-BoldMT';}
	.st7{font-size:7px;}
	.st8{font-size:9px;}
</style>
<g id="Background">
	<rect class="st0" width="150.6" height="91.2"/>
	<polygon class="st1" points="102.8,0 0,0 0,91.2 71.4,91.2 	"/>
</g>
<g>
	<text id="Email" transform="matrix(1 0 0 1 21.2027 71.162)" class="st0 st2 st3">asudharta@spark.co</text>
</g>
<g>
	<text id="Website" transform="matrix(1 0 0 1 21.2029 76.1096)" class="st0 st2 st3">spark.co</text>
</g>
<g>
	<text id="Phone" transform="matrix(1 0 0 1 21.2029 66.2406)" class="st0 st2 st3">(408)-123-4567</text>
</g>
<g>
	<text id="Address-line-1" transform="matrix(1 0 0 1 102.9405 68.252)" class="st4 st3">La Jolla, CA 92092</text>
</g>
<g>
	<text id="Address-line-2" transform="matrix(1 0 0 1 102.9407 62.9134)" class="st4 st3">1201 Lightning Trail</text>
</g>
<g>
	<text id="Position" transform="matrix(1 0 0 1 21.2029 52.3905)" class="st0 st4 st5">Software Developer</text>
</g>
<g>
	<text id="Company" transform="matrix(1 0 0 1 102.9407 53.8217)" class="st6 st7">Spark Co.</text>
</g>
<g>
	<text id="Name" transform="matrix(1 0 0 1 21.2027 29.2558)"><tspan x="0" y="0" class="st0 st6 st8">Andrea</tspan><tspan x="0" y="10.8" class="st0 st6 st8">Sudharta</tspan></text>
</g>
</svg>
