<?xml version="1.0" encoding="utf-8"?>
<!-- Generator: Adobe Illustrator 22.1.0, SVG Export Plug-In . SVG Version: 6.00 Build 0)  -->
<svg version="1.1" id="Layer_1" xmlns="http://www.w3.org/2000/svg" xmlns:xlink="http://www.w3.org/1999/xlink" x="0px" y="0px"
	 viewBox="0 0 519.4 97.5" style="enable-background:new 0 0 519.4 97.5;" xml:space="preserve">
<style type="text/css">
	.st0{fill:#FFFFFF;}
</style>
<g>
	<g>
		<g>
			<path class="st0" d="M15.2,81.8l1.2-15.6L6.1,66.1c-3.2,0-5.9-2.7-5.9-5.9v-54c0-3.3,2.7-5.9,5.9-5.9h94.1c3.3,0,5.9,2.7,5.9,5.9
				v54c0,3.3-2.6,5.9-5.9,5.9l-60.9,0.7L15.2,81.8z M6.1,2.8c-1.8,0-3.3,1.5-3.3,3.3v54c0,1.8,1.5,3.3,3.3,3.3l13,0.1l-1,13.3
				l20.4-12.7l61.7-0.8c1.8,0,3.3-1.5,3.3-3.3v-54c0-1.8-1.5-3.3-3.3-3.3H6.1z"/>
		</g>
		<g>
			<g>
				<path class="st0" d="M1.6,41.7c34.2,0,68.3,0,102.5,0c0.8,0,0.8-1.3,0-1.3c-34.2,0-68.3,0-102.5,0C0.8,40.4,0.8,41.7,1.6,41.7
					L1.6,41.7z"/>
			</g>
		</g>
		<g>
			<circle class="st0" cx="24.7" cy="22.5" r="10.6"/>
		</g>
		<g>
			<g>
				<path class="st0" d="M44,16.5c5.6,0,11.1,0,16.7,0c2.1,0,2.1-3.2,0-3.2c-5.6,0-11.1,0-16.7,0C41.9,13.3,41.9,16.5,44,16.5
					L44,16.5z"/>
			</g>
		</g>
		<g>
			<g>
				<path class="st0" d="M69.4,16.5c6.1,0,12.1,0,18.2,0c2.1,0,2.1-3.2,0-3.2c-6.1,0-12.1,0-18.2,0C67.3,13.3,67.3,16.5,69.4,16.5
					L69.4,16.5z"/>
			</g>
		</g>
		<g>
			<g>
				<path class="st0" d="M44.2,25.9c3.2,0,6.4,0,9.6,0c2.1,0,2.1-3.2,0-3.2c-3.2,0-6.4,0-9.6,0C42.2,22.7,42.2,25.9,44.2,25.9
					L44.2,25.9z"/>
			</g>
		</g>
		<g>
			<g>
				<path class="st0" d="M58.7,25.9c9.6,0,19.3,0,28.9,0c2.1,0,2.1-3.2,0-3.2c-9.6,0-19.3,0-28.9,0C56.6,22.7,56.6,25.9,58.7,25.9
					L58.7,25.9z"/>
			</g>
		</g>
		<g>
			<g>
				<path class="st0" d="M44,34.7c2.9,0,5.8,0,8.8,0c2.1,0,2.1-3.2,0-3.2c-2.9,0-5.8,0-8.8,0C41.9,31.5,41.9,34.7,44,34.7L44,34.7z"
					/>
			</g>
		</g>
		<g>
			<g>
				<path class="st0" d="M79.6,34.7c2.7,0,5.4,0,8.2,0c2.1,0,2.1-3.2,0-3.2c-2.7,0-5.4,0-8.2,0C77.5,31.5,77.5,34.7,79.6,34.7
					L79.6,34.7z"/>
			</g>
		</g>
		<g>
			<g>
				<path class="st0" d="M58.3,34.7c5.1,0,10.2,0,15.3,0c2.1,0,2.1-3.2,0-3.2c-5.1,0-10.2,0-15.3,0C56.2,31.5,56.2,34.7,58.3,34.7
					L58.3,34.7z"/>
			</g>
		</g>
		<g>
			<path class="st0" d="M104.9,64l-66,0.8L16.7,79.4l1-15.4h-16V41.1h103.3V64z M14.1,50.7c10.9,0,21.8,0,32.7,0
				c1.7,0,1.7-2.6,0-2.6c-10.9,0-21.8,0-32.7,0C12.4,48.1,12.4,50.7,14.1,50.7L14.1,50.7z M14.1,58.2c5,0,10,0,15,0
				c1.7,0,1.7-2.6,0-2.6c-5,0-10,0-15,0C12.4,55.6,12.4,58.2,14.1,58.2L14.1,58.2z M71.2,51c8.5,0,17,0,25.5,0c1.7,0,1.7-2.6,0-2.6
				c-8.5,0-17,0-25.5,0C69.5,48.4,69.5,51,71.2,51L71.2,51z M70.7,58.2c1.7,0,1.7-2.6,0-2.6C69,55.7,69,58.2,70.7,58.2L70.7,58.2z
				 M76.3,58.4c6.8,0,13.5,0,20.3,0c1.7,0,1.7-2.6,0-2.6c-6.8,0-13.5,0-20.3,0C74.6,55.8,74.6,58.4,76.3,58.4L76.3,58.4z M34,58.2
				c1.4,0,2.8,0,4.2,0c1.7,0,1.7-2.6,0-2.6c-1.4,0-2.8,0-4.2,0C32.3,55.6,32.3,58.2,34,58.2L34,58.2z"/>
		</g>
		<g>
			<path class="st0" d="M173.2,41.6l0.1,0.2c-0.2,5.5-1.8,9.7-4.9,12.6c-3,2.9-7.5,4.4-13.2,4.4c-5.8,0-10.5-1.8-14.2-5.4
				c-3.6-3.6-5.5-8.2-5.5-13.9v-9.8c0-5.7,1.7-10.3,5.2-13.9c3.5-3.6,8-5.4,13.6-5.4c5.9,0,10.5,1.5,13.6,4.5
				c3.1,3,4.9,7.2,5.3,12.7l-0.1,0.2h-10.6c-0.2-3.1-0.8-5.3-2-6.8c-1.2-1.5-3.3-2.2-6.2-2.2c-2.5,0-4.4,1-5.8,3
				c-1.4,2-2.1,4.6-2.1,7.8v9.9c0,3.2,0.8,5.9,2.3,7.9c1.5,2,3.7,3,6.4,3c2.6,0,4.5-0.7,5.6-2.1c1.1-1.4,1.7-3.6,1.9-6.7H173.2z"/>
		</g>
		<g>
			<path class="st0" d="M198.6,58c-0.3-0.6-0.6-1.2-0.8-1.9c-0.2-0.7-0.5-1.4-0.6-2.1c-1,1.4-2.3,2.6-3.7,3.4
				c-1.5,0.8-3.2,1.3-5.3,1.3c-3.3,0-6-1-8.1-2.9c-2.1-1.9-3.1-4.5-3.1-7.6c0-3.5,1.3-6.1,3.9-8c2.6-1.9,6.5-2.8,11.8-2.8h4v-2.5
				c0-1.5-0.3-2.6-1-3.4c-0.7-0.8-1.8-1.2-3.2-1.2c-1.2,0-2.2,0.3-2.8,0.9c-0.6,0.6-0.9,1.5-0.9,2.8l-10.5,0l-0.1-0.2
				c-0.2-3.2,1.2-5.8,4-8c2.8-2.1,6.5-3.2,11.1-3.2c4.3,0,7.8,1.1,10.5,3.2c2.7,2.2,4,5.2,4,9.2v13.2c0,1.9,0.2,3.6,0.5,5.2
				c0.3,1.6,0.8,3.2,1.4,4.7L198.6,58z M191.4,50.9c1.1,0,2.1-0.2,3-0.6c0.9-0.4,1.6-1,2.2-1.7v-5.5h-3.9c-1.7,0-3,0.4-3.8,1.3
				c-0.8,0.8-1.2,1.9-1.2,3.2c0,1,0.3,1.8,1,2.4C189.5,50.6,190.3,50.9,191.4,50.9z"/>
		</g>
		<g>
			<path class="st0" d="M233.3,32.8l-4,0c-1.2,0-2.3,0.2-3.1,0.6c-0.8,0.4-1.4,1-1.8,1.8V58h-10.9V23.1h10.3l0.4,5.1
				c0.7-1.8,1.7-3.2,2.9-4.3c1.2-1,2.6-1.5,4.2-1.5c0.5,0,1,0,1.6,0.1c0.5,0.1,1,0.2,1.4,0.3L233.3,32.8z"/>
		</g>
		<g>
			<path class="st0" d="M235.9,40.7c0-5.4,1.2-9.8,3.6-13.2c2.4-3.3,5.7-5,10-5c1.6,0,3.1,0.4,4.4,1.1c1.3,0.7,2.5,1.8,3.5,3.2V7.7
				h10.9V58h-9.5l-0.8-4.3c-1.1,1.6-2.3,2.8-3.8,3.7c-1.4,0.8-3,1.3-4.9,1.3c-4.3,0-7.6-1.6-10-4.8c-2.4-3.2-3.5-7.4-3.5-12.6V40.7z
				 M246.8,41.3c0,2.8,0.4,5,1.2,6.6c0.8,1.6,2.2,2.4,4.2,2.4c1.1,0,2.1-0.2,3-0.6c0.9-0.4,1.6-1,2.1-1.9V33.8
				c-0.6-0.9-1.3-1.6-2.1-2.1c-0.9-0.5-1.8-0.7-3-0.7c-1.9,0-3.3,0.9-4.2,2.7c-0.9,1.8-1.3,4.1-1.3,7.1V41.3z"/>
		</g>
		<g>
			<path class="st0" d="M311.6,41.6l0.1,0.2c-0.2,5.5-1.8,9.7-4.9,12.6c-3,2.9-7.5,4.4-13.2,4.4c-5.8,0-10.5-1.8-14.2-5.4
				c-3.6-3.6-5.5-8.2-5.5-13.9v-9.8c0-5.7,1.7-10.3,5.2-13.9c3.5-3.6,8-5.4,13.6-5.4c5.9,0,10.5,1.5,13.6,4.5
				c3.1,3,4.9,7.2,5.3,12.7l-0.1,0.2h-10.6c-0.2-3.1-0.8-5.3-2-6.8c-1.2-1.5-3.3-2.2-6.2-2.2c-2.5,0-4.4,1-5.8,3
				c-1.4,2-2.1,4.6-2.1,7.8v9.9c0,3.2,0.8,5.9,2.3,7.9c1.5,2,3.7,3,6.4,3c2.6,0,4.5-0.7,5.6-2.1c1.1-1.4,1.7-3.6,1.9-6.7H311.6z"/>
		</g>
		<g>
			<path class="st0" d="M315.5,40.3c0-5.2,1.5-9.5,4.5-12.8c3-3.3,7.1-5,12.4-5c5.3,0,9.5,1.7,12.4,5c3,3.3,4.5,7.6,4.5,12.8v0.7
				c0,5.3-1.5,9.5-4.5,12.8c-3,3.3-7.1,4.9-12.4,4.9c-5.4,0-9.5-1.6-12.5-4.9c-3-3.3-4.5-7.6-4.5-12.8V40.3z M326.4,40.9
				c0,2.9,0.5,5.2,1.4,6.9c0.9,1.7,2.5,2.5,4.7,2.5c2.1,0,3.7-0.8,4.6-2.5c0.9-1.7,1.4-4,1.4-6.9v-0.7c0-2.8-0.5-5.1-1.4-6.8
				c-0.9-1.7-2.5-2.6-4.6-2.6c-2.2,0-3.7,0.9-4.6,2.6c-0.9,1.7-1.4,4-1.4,6.8V40.9z"/>
		</g>
		<g>
			<path class="st0" d="M364.1,23.1l0.4,4.9c1.1-1.7,2.5-3.1,4.2-4.1c1.7-1,3.5-1.5,5.6-1.5c3.4,0,6.1,1.1,8,3.3
				c1.9,2.2,2.9,5.7,2.9,10.6V58h-10.9V36.4c0-2-0.4-3.4-1.2-4.2c-0.8-0.8-2-1.2-3.7-1.2c-1,0-1.9,0.2-2.7,0.5
				c-0.8,0.4-1.5,0.9-2,1.5V58h-10.9V23.1H364.1z"/>
		</g>
		<g>
			<path class="st0" d="M401.2,23.1l0.4,4.9c1.1-1.7,2.5-3.1,4.2-4.1c1.7-1,3.5-1.5,5.6-1.5c3.4,0,6.1,1.1,8,3.3
				c1.9,2.2,2.9,5.7,2.9,10.6V58h-10.9V36.4c0-2-0.4-3.4-1.2-4.2c-0.8-0.8-2-1.2-3.7-1.2c-1,0-1.9,0.2-2.7,0.5
				c-0.8,0.4-1.5,0.9-2,1.5V58H391V23.1H401.2z"/>
		</g>
		<g>
			<path class="st0" d="M444.2,58.7c-5.1,0-9.2-1.6-12.3-4.8c-3.1-3.2-4.6-7.3-4.6-12.1v-1.2c0-5.3,1.4-9.6,4.2-13
				c2.8-3.4,6.8-5,11.9-5c4.7,0,8.4,1.4,11.1,4.3c2.7,2.8,4,6.7,4,11.5V44h-19.9l-0.1,0.2c0.2,1.8,1,3.3,2.2,4.4
				c1.2,1.2,2.9,1.7,4.9,1.7c2.1,0,3.7-0.2,5-0.5c1.2-0.3,2.8-0.9,4.7-1.7l2.6,6.6c-1.5,1.1-3.5,2-5.9,2.8
				C449.6,58.3,447,58.7,444.2,58.7z M443.5,30.9c-1.6,0-2.7,0.6-3.5,1.7c-0.8,1.1-1.3,2.6-1.4,4.5l0.1,0.2h9.4v-0.8
				c0-1.8-0.4-3.1-1.1-4.1C446.1,31.4,445,30.9,443.5,30.9z"/>
		</g>
		<g>
			<path class="st0" d="M478.1,50.3c1.5,0,2.5-0.4,3.3-1.2c0.7-0.8,1.1-2,1.1-3.5h10l0.1,0.2c0.1,3.8-1.2,6.9-4,9.3
				c-2.7,2.4-6.2,3.6-10.4,3.6c-5.3,0-9.4-1.6-12.2-4.9c-2.9-3.3-4.3-7.6-4.3-12.8v-0.7c0-5.2,1.4-9.5,4.3-12.8
				c2.9-3.3,6.9-5,12.2-5c4.4,0,8,1.2,10.6,3.7c2.6,2.5,3.9,5.8,3.8,10.1l-0.1,0.2h-10c0-1.7-0.4-3-1.1-4c-0.7-1-1.8-1.6-3.3-1.6
				c-2.1,0-3.5,0.8-4.3,2.5c-0.8,1.7-1.2,4-1.2,6.8V41c0,2.9,0.4,5.2,1.2,6.9C474.5,49.5,476,50.3,478.1,50.3z"/>
		</g>
		<g>
			<path class="st0" d="M509.9,14.5v8.7h5.9v7.5h-5.9v16c0,1.2,0.3,2.1,0.8,2.7c0.5,0.5,1.2,0.8,2,0.8c0.7,0,1.2,0,1.6-0.1
				c0.4,0,0.9-0.1,1.5-0.3l0.8,8.1c-1.2,0.3-2.3,0.5-3.3,0.6c-1,0.1-2.1,0.2-3.4,0.2c-3.6,0-6.3-1-8.2-2.9c-1.8-1.9-2.8-4.9-2.8-9.1
				V30.7h-4.9v-7.5h4.9v-8.7H509.9z"/>
		</g>
	</g>
	<g>
		<path class="st0" d="M143.3,87.8l4.4-8.6h2.6l-5.9,11v6h-2.3V90l-5.9-10.8h2.6L143.3,87.8z"/>
		<path class="st0" d="M151,89.7c0-1.9,0.5-3.4,1.5-4.6c1-1.2,2.4-1.8,4.1-1.8c1.7,0,3.1,0.6,4.1,1.8c1,1.2,1.5,2.7,1.5,4.6V90
			c0,1.9-0.5,3.4-1.5,4.6s-2.4,1.8-4.1,1.8c-1.7,0-3.1-0.6-4.1-1.8c-1-1.2-1.5-2.7-1.5-4.6V89.7z M153.3,90c0,1.3,0.3,2.4,0.8,3.3
			c0.6,0.9,1.4,1.3,2.5,1.3c1.1,0,1.9-0.4,2.5-1.3s0.8-2,0.8-3.3v-0.3c0-1.3-0.3-2.4-0.9-3.3s-1.4-1.3-2.5-1.3
			c-1.1,0-1.9,0.4-2.5,1.3c-0.6,0.9-0.8,2-0.8,3.3V90z"/>
		<path class="st0" d="M173,94.3c-0.4,0.7-0.9,1.2-1.5,1.6s-1.3,0.5-2.2,0.5c-1.4,0-2.4-0.4-3.2-1.3c-0.8-0.9-1.2-2.2-1.2-4.1v-7.4
			h2.3V91c0,1.3,0.2,2.3,0.6,2.8c0.4,0.5,1,0.8,1.9,0.8c0.8,0,1.5-0.2,2-0.5c0.5-0.3,0.9-0.8,1.2-1.4v-9.1h2.3v12.6h-2.1L173,94.3z"
			/>
		<path class="st0" d="M184.5,85.6l-1.2-0.1c-0.6,0-1.1,0.1-1.5,0.4c-0.4,0.3-0.7,0.7-1,1.2v9h-2.3V83.6h2l0.2,1.8
			c0.4-0.7,0.8-1.2,1.3-1.5c0.5-0.4,1.1-0.5,1.8-0.5c0.2,0,0.3,0,0.5,0c0.2,0,0.3,0.1,0.4,0.1L184.5,85.6z"/>
		<path class="st0" d="M203.4,90.3c0,1.8-0.4,3.3-1.3,4.4s-2.1,1.7-3.6,1.7c-0.8,0-1.6-0.2-2.2-0.5c-0.6-0.3-1.1-0.8-1.5-1.4
			l-0.3,1.7h-1.9V78h2.3v7.1c0.4-0.6,0.9-1,1.5-1.3c0.6-0.3,1.3-0.4,2.1-0.4c1.6,0,2.8,0.6,3.6,1.9c0.9,1.2,1.3,2.9,1.3,4.9V90.3z
			 M201.1,90.1c0-1.4-0.3-2.6-0.8-3.5c-0.5-0.9-1.3-1.4-2.4-1.4c-0.7,0-1.3,0.2-1.8,0.5c-0.5,0.3-0.9,0.8-1.2,1.4v5.5
			c0.3,0.6,0.7,1.1,1.2,1.5c0.5,0.3,1.1,0.5,1.8,0.5c1.1,0,1.9-0.4,2.4-1.2c0.5-0.8,0.8-1.8,0.8-3V90.1z"/>
		<path class="st0" d="M214.2,94.3c-0.4,0.7-0.9,1.2-1.5,1.6s-1.3,0.5-2.2,0.5c-1.4,0-2.4-0.4-3.2-1.3c-0.8-0.9-1.2-2.2-1.2-4.1
			v-7.4h2.3V91c0,1.3,0.2,2.3,0.6,2.8c0.4,0.5,1,0.8,1.9,0.8c0.8,0,1.5-0.2,2-0.5c0.5-0.3,0.9-0.8,1.2-1.4v-9.1h2.3v12.6h-2.1
			L214.2,94.3z"/>
		<path class="st0" d="M227.1,92.8c0-0.5-0.2-0.9-0.6-1.2c-0.4-0.3-1.1-0.6-2.2-0.8c-1.5-0.3-2.7-0.8-3.5-1.4
			c-0.8-0.6-1.2-1.3-1.2-2.3c0-1,0.4-1.9,1.3-2.6c0.9-0.7,2-1.1,3.4-1.1c1.5,0,2.6,0.4,3.5,1.1c0.9,0.8,1.3,1.7,1.2,2.7l0,0.1H227
			c0-0.6-0.2-1-0.7-1.5s-1.1-0.7-1.8-0.7c-0.8,0-1.4,0.2-1.8,0.5c-0.4,0.4-0.6,0.8-0.6,1.3c0,0.5,0.2,0.9,0.5,1.2
			c0.3,0.3,1.1,0.5,2.1,0.8c1.6,0.3,2.8,0.8,3.5,1.4c0.8,0.6,1.2,1.4,1.2,2.4c0,1.1-0.5,2-1.4,2.7c-0.9,0.7-2.1,1-3.5,1
			c-1.6,0-2.9-0.4-3.8-1.2c-0.9-0.8-1.4-1.8-1.3-2.9l0-0.1h2.2c0,0.8,0.3,1.4,0.9,1.8c0.6,0.4,1.2,0.6,2,0.6c0.8,0,1.5-0.2,1.9-0.5
			C226.9,93.8,227.1,93.3,227.1,92.8z"/>
		<path class="st0" d="M234.7,80.3h-2.3V78h2.3V80.3z M234.7,96.2h-2.3V83.6h2.3V96.2z"/>
		<path class="st0" d="M240.3,83.6l0.2,1.9c0.4-0.7,0.9-1.2,1.6-1.6c0.6-0.4,1.4-0.6,2.2-0.6c1.4,0,2.4,0.4,3.2,1.2
			c0.7,0.8,1.1,2,1.1,3.7v7.9h-2.3v-7.9c0-1.1-0.2-1.9-0.7-2.4c-0.4-0.5-1.1-0.7-2-0.7c-0.7,0-1.2,0.2-1.8,0.5
			c-0.5,0.3-0.9,0.8-1.2,1.3v9.2h-2.3V83.6H240.3z"/>
		<path class="st0" d="M257,96.4c-1.8,0-3.1-0.6-4.2-1.8c-1-1.2-1.6-2.7-1.6-4.5v-0.5c0-1.8,0.5-3.3,1.6-4.5
			c1.1-1.2,2.3-1.8,3.8-1.8c1.7,0,3,0.5,3.9,1.5c0.9,1,1.3,2.4,1.3,4.1v1.4h-8.2l0,0.1c0,1.2,0.3,2.2,0.9,3c0.6,0.8,1.4,1.2,2.5,1.2
			c0.8,0,1.5-0.1,2-0.3c0.6-0.2,1.1-0.5,1.5-0.9l0.9,1.5c-0.5,0.4-1,0.8-1.8,1.1C259,96.3,258.1,96.4,257,96.4z M256.7,85.1
			c-0.8,0-1.4,0.3-2,1s-0.9,1.5-1,2.4l0,0.1h5.8v-0.3c0-0.9-0.2-1.6-0.7-2.3C258.3,85.4,257.6,85.1,256.7,85.1z"/>
		<path class="st0" d="M271.7,92.8c0-0.5-0.2-0.9-0.6-1.2c-0.4-0.3-1.1-0.6-2.2-0.8c-1.5-0.3-2.7-0.8-3.5-1.4s-1.2-1.3-1.2-2.3
			c0-1,0.4-1.9,1.3-2.6s2-1.1,3.4-1.1c1.5,0,2.6,0.4,3.5,1.1c0.9,0.8,1.3,1.7,1.2,2.7l0,0.1h-2.2c0-0.6-0.2-1-0.7-1.5
			s-1.1-0.7-1.8-0.7c-0.8,0-1.4,0.2-1.8,0.5c-0.4,0.4-0.6,0.8-0.6,1.3c0,0.5,0.2,0.9,0.5,1.2c0.3,0.3,1.1,0.5,2.1,0.8
			c1.6,0.3,2.8,0.8,3.5,1.4c0.8,0.6,1.2,1.4,1.2,2.4c0,1.1-0.5,2-1.4,2.7c-0.9,0.7-2.1,1-3.5,1c-1.6,0-2.9-0.4-3.8-1.2
			c-0.9-0.8-1.4-1.8-1.3-2.9l0-0.1h2.2c0,0.8,0.3,1.4,0.9,1.8s1.2,0.6,2,0.6c0.8,0,1.5-0.2,1.9-0.5
			C271.5,93.8,271.7,93.3,271.7,92.8z"/>
		<path class="st0" d="M284.2,92.8c0-0.5-0.2-0.9-0.6-1.2c-0.4-0.3-1.1-0.6-2.2-0.8c-1.5-0.3-2.7-0.8-3.5-1.4s-1.2-1.3-1.2-2.3
			c0-1,0.4-1.9,1.3-2.6s2-1.1,3.4-1.1c1.5,0,2.6,0.4,3.5,1.1c0.9,0.8,1.3,1.7,1.2,2.7l0,0.1H284c0-0.6-0.2-1-0.7-1.5
			s-1.1-0.7-1.8-0.7c-0.8,0-1.4,0.2-1.8,0.5c-0.4,0.4-0.6,0.8-0.6,1.3c0,0.5,0.2,0.9,0.5,1.2s1.1,0.5,2.1,0.8
			c1.6,0.3,2.8,0.8,3.5,1.4c0.8,0.6,1.2,1.4,1.2,2.4c0,1.1-0.5,2-1.4,2.7c-0.9,0.7-2.1,1-3.5,1c-1.6,0-2.9-0.4-3.8-1.2
			c-0.9-0.8-1.4-1.8-1.3-2.9l0-0.1h2.2c0,0.8,0.3,1.4,0.9,1.8s1.2,0.6,2,0.6c0.8,0,1.5-0.2,1.9-0.5C284,93.8,284.2,93.3,284.2,92.8z
			"/>
		<path class="st0" d="M300.4,94.6c0.8,0,1.4-0.2,2-0.7s0.9-1,0.9-1.7h2.1l0,0.1c0,1.1-0.4,2.1-1.4,2.9s-2.2,1.3-3.5,1.3
			c-1.8,0-3.2-0.6-4.2-1.8c-1-1.2-1.5-2.7-1.5-4.5v-0.5c0-1.8,0.5-3.3,1.5-4.5c1-1.2,2.4-1.8,4.2-1.8c1.5,0,2.7,0.4,3.6,1.3
			c0.9,0.9,1.4,1.9,1.4,3.2l0,0.1h-2.1c0-0.8-0.3-1.4-0.8-2c-0.5-0.5-1.2-0.8-2.1-0.8c-1.2,0-2.1,0.4-2.6,1.3
			c-0.5,0.9-0.8,1.9-0.8,3.2v0.5c0,1.3,0.3,2.4,0.8,3.2C298.3,94.2,299.2,94.6,300.4,94.6z"/>
		<path class="st0" d="M315.6,96.2c-0.1-0.4-0.1-0.7-0.2-1c0-0.3-0.1-0.6-0.1-0.9c-0.4,0.6-1,1.1-1.7,1.5c-0.7,0.4-1.4,0.6-2.2,0.6
			c-1.3,0-2.3-0.3-3-1c-0.7-0.7-1-1.6-1-2.8c0-1.2,0.5-2.1,1.5-2.8s2.3-1,4-1h2.5v-1.2c0-0.7-0.2-1.3-0.7-1.8s-1.1-0.6-1.9-0.6
			c-0.7,0-1.3,0.2-1.8,0.6c-0.5,0.4-0.7,0.8-0.7,1.4h-2.2l0-0.1c0-0.9,0.4-1.8,1.3-2.5c0.9-0.8,2.1-1.1,3.5-1.1
			c1.4,0,2.6,0.4,3.4,1.1c0.9,0.7,1.3,1.8,1.3,3.1v6.1c0,0.5,0,0.9,0.1,1.3c0,0.4,0.1,0.8,0.3,1.2H315.6z M311.8,94.5
			c0.8,0,1.6-0.2,2.2-0.6c0.7-0.4,1.1-0.9,1.3-1.5v-2h-2.6c-0.9,0-1.7,0.2-2.2,0.7c-0.6,0.5-0.8,1-0.8,1.6c0,0.6,0.2,1,0.5,1.3
			C310.6,94.3,311.2,94.5,311.8,94.5z"/>
		<path class="st0" d="M327,85.6l-1.2-0.1c-0.6,0-1.1,0.1-1.5,0.4s-0.7,0.7-1,1.2v9H321V83.6h2l0.2,1.8c0.4-0.7,0.8-1.2,1.3-1.5
			c0.5-0.4,1.1-0.5,1.8-0.5c0.2,0,0.3,0,0.5,0c0.2,0,0.3,0.1,0.4,0.1L327,85.6z"/>
		<path class="st0" d="M328.4,90.1c0-2,0.4-3.7,1.3-4.9c0.9-1.2,2.1-1.9,3.6-1.9c0.7,0,1.4,0.1,2,0.4s1.1,0.7,1.5,1.2V78h2.3v18.2
			h-1.9l-0.3-1.5c-0.4,0.6-0.9,1-1.5,1.3c-0.6,0.3-1.3,0.5-2.1,0.5c-1.5,0-2.7-0.6-3.6-1.7c-0.9-1.1-1.3-2.6-1.3-4.4V90.1z
			 M330.7,90.3c0,1.3,0.3,2.3,0.8,3.1c0.5,0.8,1.3,1.1,2.4,1.1c0.7,0,1.3-0.2,1.7-0.5s0.8-0.7,1.1-1.3v-5.9
			c-0.3-0.5-0.7-0.9-1.1-1.2s-1-0.5-1.7-0.5c-1.1,0-1.9,0.5-2.4,1.4c-0.5,0.9-0.8,2.1-0.8,3.5V90.3z"/>
		<path class="st0" d="M349.8,92.8c0-0.5-0.2-0.9-0.6-1.2c-0.4-0.3-1.1-0.6-2.2-0.8c-1.5-0.3-2.7-0.8-3.5-1.4
			c-0.8-0.6-1.2-1.3-1.2-2.3c0-1,0.4-1.9,1.3-2.6s2-1.1,3.4-1.1c1.5,0,2.6,0.4,3.5,1.1c0.9,0.8,1.3,1.7,1.2,2.7l0,0.1h-2.2
			c0-0.6-0.2-1-0.7-1.5c-0.5-0.4-1.1-0.7-1.8-0.7c-0.8,0-1.4,0.2-1.8,0.5c-0.4,0.4-0.6,0.8-0.6,1.3c0,0.5,0.2,0.9,0.5,1.2
			c0.3,0.3,1.1,0.5,2.1,0.8c1.6,0.3,2.8,0.8,3.5,1.4c0.8,0.6,1.2,1.4,1.2,2.4c0,1.1-0.5,2-1.4,2.7c-0.9,0.7-2.1,1-3.5,1
			c-1.6,0-2.9-0.4-3.8-1.2c-0.9-0.8-1.4-1.8-1.3-2.9l0-0.1h2.2c0,0.8,0.3,1.4,0.9,1.8s1.2,0.6,2,0.6c0.8,0,1.5-0.2,1.9-0.5
			C349.6,93.8,349.8,93.3,349.8,92.8z"/>
		<path class="st0" d="M368.6,96.2c-0.1-0.4-0.1-0.7-0.2-1c0-0.3-0.1-0.6-0.1-0.9c-0.4,0.6-1,1.1-1.7,1.5c-0.7,0.4-1.4,0.6-2.2,0.6
			c-1.3,0-2.3-0.3-3-1c-0.7-0.7-1-1.6-1-2.8c0-1.2,0.5-2.1,1.5-2.8s2.3-1,4-1h2.5v-1.2c0-0.7-0.2-1.3-0.7-1.8s-1.1-0.6-1.9-0.6
			c-0.7,0-1.3,0.2-1.8,0.6c-0.5,0.4-0.7,0.8-0.7,1.4h-2.2l0-0.1c0-0.9,0.4-1.8,1.3-2.5c0.9-0.8,2.1-1.1,3.5-1.1
			c1.4,0,2.6,0.4,3.4,1.1c0.9,0.7,1.3,1.8,1.3,3.1v6.1c0,0.5,0,0.9,0.1,1.3c0,0.4,0.1,0.8,0.3,1.2H368.6z M364.8,94.5
			c0.8,0,1.6-0.2,2.2-0.6c0.7-0.4,1.1-0.9,1.3-1.5v-2h-2.6c-0.9,0-1.7,0.2-2.2,0.7c-0.6,0.5-0.8,1-0.8,1.6c0,0.6,0.2,1,0.5,1.3
			C363.6,94.3,364.1,94.5,364.8,94.5z"/>
		<path class="st0" d="M376.5,96.2h-2.3V78h2.3V96.2z"/>
		<path class="st0" d="M382.5,96.2h-2.3V78h2.3V96.2z"/>
		<path class="st0" d="M394.4,80.3h-2.3V78h2.3V80.3z M394.4,96.2h-2.3V83.6h2.3V96.2z"/>
		<path class="st0" d="M400,83.6l0.2,1.9c0.4-0.7,0.9-1.2,1.6-1.6c0.6-0.4,1.4-0.6,2.2-0.6c1.4,0,2.4,0.4,3.2,1.2
			c0.7,0.8,1.1,2,1.1,3.7v7.9h-2.3v-7.9c0-1.1-0.2-1.9-0.7-2.4c-0.4-0.5-1.1-0.7-2-0.7c-0.7,0-1.2,0.2-1.8,0.5
			c-0.5,0.3-0.9,0.8-1.2,1.3v9.2h-2.3V83.6H400z"/>
		<path class="st0" d="M416.9,89.7c0-1.9,0.5-3.4,1.5-4.6c1-1.2,2.4-1.8,4.1-1.8c1.7,0,3.1,0.6,4.1,1.8c1,1.2,1.5,2.7,1.5,4.6V90
			c0,1.9-0.5,3.4-1.5,4.6s-2.4,1.8-4.1,1.8s-3.1-0.6-4.1-1.8s-1.5-2.7-1.5-4.6V89.7z M419.2,90c0,1.3,0.3,2.4,0.8,3.3
			s1.4,1.3,2.5,1.3c1.1,0,1.9-0.4,2.5-1.3c0.6-0.9,0.8-2,0.8-3.3v-0.3c0-1.3-0.3-2.4-0.9-3.3s-1.4-1.3-2.5-1.3
			c-1.1,0-1.9,0.4-2.5,1.3s-0.8,2-0.8,3.3V90z"/>
		<path class="st0" d="M433,83.6l0.2,1.9c0.4-0.7,0.9-1.2,1.6-1.6c0.6-0.4,1.4-0.6,2.2-0.6c1.4,0,2.4,0.4,3.2,1.2
			c0.7,0.8,1.1,2,1.1,3.7v7.9h-2.3v-7.9c0-1.1-0.2-1.9-0.7-2.4c-0.4-0.5-1.1-0.7-2-0.7c-0.7,0-1.2,0.2-1.8,0.5
			c-0.5,0.3-0.9,0.8-1.2,1.3v9.2H431V83.6H433z"/>
		<path class="st0" d="M449.7,96.4c-1.8,0-3.1-0.6-4.2-1.8S444,92,444,90.1v-0.5c0-1.8,0.5-3.3,1.6-4.5c1.1-1.2,2.3-1.8,3.8-1.8
			c1.7,0,3,0.5,3.9,1.5c0.9,1,1.3,2.4,1.3,4.1v1.4h-8.2l0,0.1c0,1.2,0.3,2.2,0.9,3c0.6,0.8,1.4,1.2,2.5,1.2c0.8,0,1.5-0.1,2-0.3
			c0.6-0.2,1.1-0.5,1.5-0.9l0.9,1.5c-0.5,0.4-1,0.8-1.8,1.1C451.7,96.3,450.8,96.4,449.7,96.4z M449.4,85.1c-0.8,0-1.4,0.3-2,1
			c-0.5,0.6-0.9,1.5-1,2.4l0,0.1h5.8v-0.3c0-0.9-0.2-1.6-0.7-2.3C451,85.4,450.3,85.1,449.4,85.1z"/>
		<path class="st0" d="M473.8,90.3c0,1.8-0.4,3.3-1.3,4.4c-0.9,1.1-2.1,1.7-3.6,1.7c-0.8,0-1.5-0.1-2-0.4c-0.6-0.3-1.1-0.6-1.5-1.2
			v6.2H463V83.6h1.8l0.4,1.6c0.4-0.6,0.9-1.1,1.5-1.4c0.6-0.3,1.3-0.5,2.1-0.5c1.6,0,2.8,0.6,3.6,1.9c0.9,1.2,1.3,2.9,1.3,4.9V90.3z
			 M471.5,90.1c0-1.4-0.3-2.6-0.8-3.5c-0.6-0.9-1.4-1.4-2.5-1.4c-0.7,0-1.2,0.1-1.7,0.4c-0.5,0.3-0.8,0.7-1.1,1.2v6.1
			c0.3,0.5,0.7,0.9,1.1,1.2c0.5,0.3,1,0.4,1.7,0.4c1.1,0,1.9-0.4,2.5-1.2s0.8-1.8,0.8-3.1V90.1z"/>
		<path class="st0" d="M479.1,96.2h-2.3V78h2.3V96.2z"/>
		<path class="st0" d="M490.3,96.2c-0.1-0.4-0.1-0.7-0.2-1c0-0.3-0.1-0.6-0.1-0.9c-0.4,0.6-1,1.1-1.7,1.5c-0.7,0.4-1.4,0.6-2.2,0.6
			c-1.3,0-2.3-0.3-3-1c-0.7-0.7-1-1.6-1-2.8c0-1.2,0.5-2.1,1.5-2.8s2.3-1,4-1h2.5v-1.2c0-0.7-0.2-1.3-0.7-1.8s-1.1-0.6-1.9-0.6
			c-0.7,0-1.3,0.2-1.8,0.6c-0.5,0.4-0.7,0.8-0.7,1.4h-2.2l0-0.1c0-0.9,0.4-1.8,1.3-2.5c0.9-0.8,2.1-1.1,3.5-1.1
			c1.4,0,2.6,0.4,3.4,1.1c0.9,0.7,1.3,1.8,1.3,3.1v6.1c0,0.5,0,0.9,0.1,1.3c0,0.4,0.1,0.8,0.3,1.2H490.3z M486.5,94.5
			c0.8,0,1.6-0.2,2.2-0.6c0.7-0.4,1.1-0.9,1.3-1.5v-2h-2.6c-0.9,0-1.7,0.2-2.2,0.7c-0.6,0.5-0.8,1-0.8,1.6c0,0.6,0.2,1,0.5,1.3
			C485.3,94.3,485.8,94.5,486.5,94.5z"/>
		<path class="st0" d="M500.8,94.6c0.8,0,1.4-0.2,2-0.7s0.9-1,0.9-1.7h2.1l0,0.1c0,1.1-0.4,2.1-1.4,2.9s-2.2,1.3-3.5,1.3
			c-1.8,0-3.2-0.6-4.2-1.8c-1-1.2-1.5-2.7-1.5-4.5v-0.5c0-1.8,0.5-3.3,1.5-4.5c1-1.2,2.4-1.8,4.2-1.8c1.5,0,2.7,0.4,3.6,1.3
			c0.9,0.9,1.4,1.9,1.4,3.2l0,0.1h-2.1c0-0.8-0.3-1.4-0.8-2c-0.5-0.5-1.2-0.8-2.1-0.8c-1.2,0-2.1,0.4-2.6,1.3
			c-0.5,0.9-0.8,1.9-0.8,3.2v0.5c0,1.3,0.3,2.4,0.8,3.2C498.7,94.2,499.6,94.6,500.8,94.6z"/>
		<path class="st0" d="M513.6,96.4c-1.8,0-3.1-0.6-4.2-1.8s-1.6-2.7-1.6-4.5v-0.5c0-1.8,0.5-3.3,1.6-4.5c1.1-1.2,2.3-1.8,3.8-1.8
			c1.7,0,3,0.5,3.9,1.5c0.9,1,1.3,2.4,1.3,4.1v1.4h-8.2l0,0.1c0,1.2,0.3,2.2,0.9,3c0.6,0.8,1.4,1.2,2.5,1.2c0.8,0,1.5-0.1,2-0.3
			c0.6-0.2,1.1-0.5,1.5-0.9l0.9,1.5c-0.5,0.4-1,0.8-1.8,1.1C515.5,96.3,514.6,96.4,513.6,96.4z M513.2,85.1c-0.8,0-1.4,0.3-2,1
			c-0.5,0.6-0.9,1.5-1,2.4l0,0.1h5.8v-0.3c0-0.9-0.2-1.6-0.7-2.3C514.9,85.4,514.2,85.1,513.2,85.1z"/>
	</g>
</g>
</svg>
