<?xml version="1.0" encoding="utf-8"?>
<!-- Generator: Adobe Illustrator 22.1.0, SVG Export Plug-In . SVG Version: 6.00 Build 0)  -->
<svg version="1.1" id="Layer_1" xmlns="http://www.w3.org/2000/svg" xmlns:xlink="http://www.w3.org/1999/xlink" x="0px" y="0px"
	 viewBox="0 0 24 24" style="enable-background:new 0 0 24 24;" xml:space="preserve">
<style type="text/css">
	.st0{fill:#EF6B53;}
</style>
<path class="st0" d="M8,6V4c0-1.1,0.9-2,2-2h4c1.1,0,2,0.9,2,2v2h5c0.6,0,1,0.4,1,1s-0.4,1-1,1h-1v12c0,1.1-0.9,2-2,2H6
	c-1.1,0-2-0.9-2-2V8H3C2.4,8,2,7.6,2,7s0.4-1,1-1H8z M6,8v12h12V8H6z M14,6V4h-4v2H14z M10,10c0.6,0,1,0.4,1,1v6c0,0.6-0.4,1-1,1
	s-1-0.4-1-1v-6C9,10.4,9.4,10,10,10z M14,10c0.6,0,1,0.4,1,1v6c0,0.6-0.4,1-1,1s-1-0.4-1-1v-6C13,10.4,13.4,10,14,10z"/>
</svg>
