<?xml version="1.0" encoding="utf-8"?>
<!-- Generator: Adobe Illustrator 22.1.0, SVG Export Plug-In . SVG Version: 6.00 Build 0)  -->
<svg version="1.1" id="Card" xmlns="http://www.w3.org/2000/svg" xmlns:xlink="http://www.w3.org/1999/xlink" x="0px" y="0px"
	 viewBox="0 0 150.6 91.2" style="enable-background:new 0 0 150.6 91.2;" xml:space="preserve">
<style type="text/css">
	.st0{fill:#FFFFFF;}
	.st1{font-family:'Arial-ItalicMT';}
	.st2{font-size:4px;}
	.st3{font-family:'ArialMT';}
	.st4{font-size:6px;}
	.st5{font-family:'Arial-BoldMT';}
	.st6{font-size:9px;}
</style>
<g id="Background">
	<rect class="st0" width="150.6" height="91.2"/>
</g>
<g>
	<text id="email" transform="matrix(1 0 0 1 23.1707 57.2601)" class="st1 st2"></text>
</g>
<g>
	<text id="website" transform="matrix(1 0 0 1 23.1705 62.3414)" class="st1 st2"></text>
</g>
<g>
	<text id="phone" transform="matrix(1 0 0 1 23.1707 52.1703)" class="st1 st2"></text>
</g>
<g>
	<text id="line2" transform="matrix(1 0 0 1 101.8316 78.1345)" class="st3 st2"></text>
</g>
<g>
	<text id="line1" transform="matrix(1 0 0 1 101.8316 73.4003)" class="st3 st2"></text>
</g>
<g>
	<text id="position" transform="matrix(1 0 0 1 23.1705 37.8223)" class="st3 st4"></text>
</g>
<g>
	<text id="company" transform="matrix(1 0 0 1 101.8315 65.5237)" class="st3 st4"></text>
</g>
<g>
	<text transform="matrix(1 0 0 1 23.1707 28.253)" class="st5 st6"><tspan id="first"></tspan> <tspan id="last"></tspan></text>
	<!--<text transform="matrix(1 0 0 1 17.7978 31.2728)"><tspan id="first" x="0" y="0" class="st6 st8"></tspan><tspan id="last" x="0" y="10.8" class="st6 st8"></tspan></text>-->
</g>
</svg>
