<?xml version="1.0" encoding="utf-8"?>
<!-- Generator: Adobe Illustrator 22.1.0, SVG Export Plug-In . SVG Version: 6.00 Build 0)  -->
<svg version="1.1" id="Card" xmlns="http://www.w3.org/2000/svg" xmlns:xlink="http://www.w3.org/1999/xlink" x="0px" y="0px"
	 viewBox="0 0 150.6 91.2" style="enable-background:new 0 0 150.6 91.2;" xml:space="preserve">
<style type="text/css">
	.st0{fill:#FFFFFF;}
	.st1{fill:#5E5E5E;}
	.st2{font-family:'Arial-ItalicMT';}
	.st3{font-size:5px;}
	.st4{font-family:'ArialMT';}
	.st5{font-size:7px;}
	.st6{font-family:'Arial-BoldMT';}
	.st7{font-size:8px;}
	.st8{font-size:9px;}
</style>
<g id="Background">
	<rect class="st0" width="150.6" height="91.2"/>
	<rect y="61.8" class="st1" width="150.6" height="29.4"/>
</g>
<g>
	<text id="email" transform="matrix(1 0 0 1 90.06 36.3747)" class="st2 st3"></text>
</g>
<g>
	<text id="website" transform="matrix(1 0 0 1 90.06 42.6793)" class="st2 st3"></text>
</g>
<g>
	<text id="phone" transform="matrix(1 0 0 1 90.06 30.2191)" class="st2 st3"></text>
</g>
<g>
	<text id="line2" transform="matrix(1 0 0 1 86.6982 81.2832)" class="st0 st4 st3"></text>
</g>
<g>
	<text id="line1" transform="matrix(1 0 0 1 86.6982 75.2077)" class="st0 st4 st3"></text>
</g>
<g>
	<text id="position" transform="matrix(1 0 0 1 18.2729 43.5817)" class="st4 st5"></text>
</g>
<g>
	<text id="company" transform="matrix(1 0 0 1 18.5859 79.6852)" class="st0 st6 st7"></text>
</g>
<g>
	<text transform="matrix(1 0 0 1 17.7978 32.7987)" class="st6 st8"><tspan id="first"></tspan> <tspan id="last"></tspan></text>
	<!--<text transform="matrix(1 0 0 1 17.7978 31.2728)"><tspan id="first" x="0" y="0" class="st6 st8"></tspan><tspan id="last" x="0" y="10.8" class="st6 st8"></tspan></text>-->
</g>
</svg>
